<svg width="14" height="14" viewBox="0 0 14 14" fill="none" xmlns="http://www.w3.org/2000/svg">
<path d="M1.75008 12.0108L3.84425 9.91667H10.5001C10.8095 9.91667 11.1062 9.79375 11.325 9.57496C11.5438 9.35616 11.6667 9.05942 11.6667 8.75V3.5C11.6667 3.19058 11.5438 2.89383 11.325 2.67504C11.1062 2.45625 10.8095 2.33333 10.5001 2.33333H2.91675C2.60733 2.33333 2.31058 2.45625 2.09179 2.67504C1.873 2.89383 1.75008 3.19058 1.75008 3.5V12.0108ZM1.75008 12.8333H1.16675V3.5C1.16675 3.03587 1.35112 2.59075 1.67931 2.26256C2.0075 1.93437 2.45262 1.75 2.91675 1.75H10.5001C10.9642 1.75 11.4093 1.93437 11.7375 2.26256C12.0657 2.59075 12.2501 3.03587 12.2501 3.5V8.75C12.2501 9.21413 12.0657 9.65925 11.7375 9.98744C11.4093 10.3156 10.9642 10.5 10.5001 10.5H4.08341L1.75008 12.8333Z" fill="#82D2F4"/>
</svg>
