<svg width="324" height="113" viewBox="0 0 324 113" fill="none" xmlns="http://www.w3.org/2000/svg">
<rect width="324" height="113" rx="10" fill="#D5F0FB"/>
<path d="M45.71 40.04L44.0771 41.6659C43.6863 42.055 43.0543 42.0543 42.6644 41.6644L40.3286 39.3286C39.9375 38.9375 39.9382 38.3032 40.3301 37.9129L41.96 36.29C42.35 35.9 43 35.9 43.37 36.29L45.71 38.63C46.1 39 46.1 39.65 45.71 40.04ZM29 49.6639C29 49.3989 29.1052 49.1447 29.2925 48.9572L38.3529 39.8878C38.7434 39.497 39.3768 39.4968 39.7675 39.8875L42.1032 42.2232C42.4936 42.6136 42.4938 43.2465 42.1036 43.6371L33.043 52.7068C32.8554 52.8945 32.6009 53 32.3355 53H30C29.4477 53 29 52.5523 29 52V49.6639ZM42.62 37.04L41.08 38.58L43.42 40.92L44.96 39.38L42.62 37.04ZM41.36 43L39 40.64L30 49.66V52H32.34L41.36 43Z" fill="#121212"/>
<path d="M68.1152 37.6914V45.7246H66.252V42.5957H64.582V45.6016H62.7363V37.9902H64.582V41.0488H66.252V37.6914H68.1152ZM61.418 38.623C61.418 42.4023 59.4492 44.8633 55.459 46.252L54.5449 44.8281C57.542 43.8438 59.0625 42.2793 59.3613 40.1875H55.248V38.623H61.418ZM68.1152 46.3398V50.5059H59.3262V51.8242H68.6777V53.3711H57.375V49.0469H66.1816V47.9043H57.3574V46.3398H68.1152ZM83.3906 37.6738V53.582H81.4395V45.127H78.7148V43.5273H81.4395V37.6738H83.3906ZM77.8008 39.0625V44.8809H72.5977V48.2207C74.9531 48.2119 76.8604 48.1328 78.9961 47.7461L79.1543 49.3457C76.7812 49.7676 74.6719 49.8555 71.9297 49.8555H70.6641V43.2988H75.8848V40.6445H70.6113V39.0625H77.8008ZM98.877 37.6738V53.582H96.9434V37.6738H98.877ZM93.9902 39.0625V45.0215H88.5234V48.2207C91.0283 48.2031 93.1904 48.0801 95.6602 47.6582L95.8359 49.2578C93.1289 49.7324 90.7559 49.8203 87.9082 49.8203H86.5195V43.4746H92.0039V40.6445H86.502V39.0625H93.9902ZM113.537 39.0449V46.5508H106.014V39.0449H113.537ZM107.93 40.6094V45.0039H111.621V40.6094H107.93ZM118.002 37.6738V42.332H120.217V43.9668H118.002V49.2754H116.051V37.6738H118.002ZM118.635 51.666V53.248H107.824V48.1504H109.775V51.666H118.635ZM135.527 44.0371V45.584H121.025V44.0371H135.527ZM133.805 41.4707V43.0176H122.871V38.0781H133.664V39.6426H124.822V41.4707H133.805ZM133.699 46.6738V50.6641H124.664V51.877H134.139V53.4062H122.748V49.2578H131.783V48.1504H122.73V46.6738H133.699ZM149.854 37.6738V53.5645H147.885V37.6738H149.854ZM145.107 39.3613C145.107 44.0898 143.279 48.1152 137.707 50.752L136.688 49.1875C140.845 47.21 142.778 44.5205 143.121 40.9082H137.496V39.3613H145.107Z" fill="#121212"/>
<path d="M29.824 65.144H30.864V67.896C30.864 70.92 29.584 73.848 27.472 75.128L26.624 74.136C28.624 72.968 29.824 70.376 29.824 67.896V65.144ZM30.064 65.144H31.104V67.816C31.104 70.2 32.224 72.648 34.144 73.72L33.344 74.76C31.232 73.544 30.064 70.728 30.064 67.816V65.144ZM37.808 63.784H39.088V78.248H37.808V63.784ZM35.52 69.592H38.288V70.696H35.52V69.592ZM34.624 64.088H35.888V77.528H34.624V64.088ZM41.5188 75.368H54.6228V76.472H41.5188V75.368ZM47.3748 72.264H48.7028V75.832H47.3748V72.264ZM43.1028 64.856H53.0068V69.24H44.4628V72.136H43.1508V68.168H51.6948V65.928H43.1028V64.856ZM43.1508 71.576H53.3428V72.664H43.1508V71.576ZM56.2215 71.112H69.3415V72.2H56.2215V71.112ZM62.2055 71.8H63.5495V75.128H62.2055V71.8ZM57.8855 76.824H67.8855V77.928H57.8855V76.824ZM57.8855 73.704H59.2135V77.128H57.8855V73.704ZM62.7655 64.136C65.8215 64.136 67.8375 65.256 67.8375 67.048C67.8375 68.84 65.8215 69.96 62.7655 69.96C59.6935 69.96 57.6935 68.84 57.6935 67.048C57.6935 65.256 59.6935 64.136 62.7655 64.136ZM62.7655 65.224C60.5575 65.224 59.1015 65.928 59.1015 67.048C59.1015 68.184 60.5575 68.872 62.7655 68.872C64.9735 68.872 66.4295 68.184 66.4295 67.048C66.4295 65.928 64.9735 65.224 62.7655 65.224ZM86.3683 63.784H87.6323V71.192H86.3683V63.784ZM84.0642 67.048H86.8003V68.136H84.0642V67.048ZM83.2163 64.056H84.4643V71.096H83.2163V64.056ZM80.3683 64.664H81.7123C81.7123 67.992 79.7763 70.344 76.1923 71.656L75.5683 70.68C78.7363 69.56 80.3683 67.656 80.3683 65.128V64.664ZM76.1443 64.664H80.9283V65.736H76.1443V64.664ZM78.0963 71.864H87.6323V75.368H79.4403V77.464H78.1283V74.344H86.3523V72.92H78.0963V71.864ZM78.1283 76.984H88.1923V78.056H78.1283V76.984ZM100.735 63.768H102.063V78.264H100.735V63.768ZM97.983 69.336H101.055V70.424H97.983V69.336ZM90.703 73.688H91.807C94.367 73.688 96.175 73.608 98.303 73.224L98.431 74.328C96.255 74.712 94.415 74.808 91.807 74.808H90.703V73.688ZM90.671 65.128H97.135V70.2H92.015V74.024H90.703V69.112H95.823V66.216H90.671V65.128ZM115.422 63.768H116.75V78.264H115.422V63.768ZM105.726 73.672H106.926C109.342 73.672 111.502 73.576 114.062 73.16L114.206 74.248C111.582 74.68 109.406 74.776 106.926 74.776H105.726V73.672ZM105.694 65.128H112.382V70.296H107.054V74.088H105.726V69.208H111.038V66.216H105.694V65.128ZM119.597 70.504H132.717V71.512H119.597V70.504ZM121.149 72.68H131.069V75.768H122.509V77.464H121.197V74.856H129.773V73.624H121.149V72.68ZM121.197 77.112H131.533V78.072H121.197V77.112ZM121.261 64.2H131.021V67.208H122.605V68.776H121.293V66.312H129.725V65.144H121.261V64.2ZM121.293 68.456H131.293V69.416H121.293V68.456ZM139.423 65.08H146.063V71.784H139.423V65.08ZM144.767 66.152H140.719V70.712H144.767V66.152ZM148.719 63.768H150.047V74.376H148.719V63.768ZM149.631 68.184H152.191V69.288H149.631V68.184ZM141.039 76.84H150.703V77.928H141.039V76.84ZM141.039 73.368H142.367V77.304H141.039V73.368ZM153.55 69.816H166.622V70.904H153.55V69.816ZM155.278 67.576H165.07V68.648H155.278V67.576ZM155.278 64.248H164.91V65.336H156.59V68.44H155.278V64.248ZM155.118 72.152H164.942V75.56H156.462V77.384H155.15V74.568H163.63V73.192H155.118V72.152ZM155.15 77.032H165.374V78.088H155.15V77.032ZM172.125 64.888C174.221 64.888 175.725 66.856 175.725 69.928C175.725 73.016 174.221 74.984 172.125 74.984C170.013 74.984 168.525 73.016 168.525 69.928C168.525 66.856 170.013 64.888 172.125 64.888ZM172.125 66.088C170.733 66.088 169.789 67.592 169.789 69.928C169.789 72.28 170.733 73.816 172.125 73.816C173.517 73.816 174.461 72.28 174.461 69.928C174.461 67.592 173.517 66.088 172.125 66.088ZM178.861 63.768H180.173V78.264H178.861V63.768ZM175.293 69.288H179.437V70.376H175.293V69.288ZM187.488 75.304H200.592V76.408H187.488V75.304ZM193.344 71.848H194.672V75.624H193.344V71.848ZM189.024 64.808H190.336V67.384H197.712V64.808H199.024V72.2H189.024V64.808ZM190.336 68.456V71.112H197.712V68.456H190.336ZM207.902 68.952H210.67V70.056H207.902V68.952ZM205.198 65.144H206.238V67.896C206.238 70.92 204.974 73.848 202.862 75.144L202.03 74.136C204.014 72.968 205.198 70.376 205.198 67.896V65.144ZM205.454 65.144H206.478V67.848C206.478 70.168 207.566 72.632 209.47 73.784L208.702 74.824C206.622 73.544 205.454 70.664 205.454 67.848V65.144ZM213.214 63.784H214.494V78.248H213.214V63.784ZM210.286 64.088H211.534V77.528H210.286V64.088ZM220.125 71.224H221.437V75.56H220.125V71.224ZM225.469 71.224H226.797V75.56H225.469V71.224ZM216.925 75.304H230.029V76.408H216.925V75.304ZM223.453 64.696C226.509 64.696 228.701 66.152 228.701 68.424C228.701 70.68 226.509 72.136 223.453 72.136C220.381 72.136 218.189 70.68 218.189 68.424C218.189 66.152 220.381 64.696 223.453 64.696ZM223.453 65.752C221.133 65.752 219.469 66.808 219.469 68.424C219.469 70.024 221.133 71.08 223.453 71.08C225.773 71.08 227.421 70.024 227.421 68.424C227.421 66.808 225.773 65.752 223.453 65.752ZM233.844 65.3636L233.73 73.7273H232.412L232.298 65.3636H233.844ZM233.071 77.0909C232.791 77.0909 232.55 76.9905 232.349 76.7898C232.149 76.589 232.048 76.3485 232.048 76.0682C232.048 75.7879 232.149 75.5473 232.349 75.3466C232.55 75.1458 232.791 75.0455 233.071 75.0455C233.351 75.0455 233.592 75.1458 233.793 75.3466C233.993 75.5473 234.094 75.7879 234.094 76.0682C234.094 76.2538 234.046 76.4242 233.952 76.5795C233.861 76.7348 233.738 76.8598 233.582 76.9545C233.431 77.0455 233.26 77.0909 233.071 77.0909Z" fill="#A3A3A3"/>
<path d="M262.583 57.9487C262.031 57.9487 261.583 57.501 261.583 56.9487V56.8846C261.583 56.3323 262.031 55.8846 262.583 55.8846H273.968V44.5C273.968 43.9477 274.416 43.5 274.968 43.5H275.032C275.584 43.5 276.032 43.9477 276.032 44.5V55.8846H287.417C287.969 55.8846 288.417 56.3323 288.417 56.8846V56.9487C288.417 57.501 287.969 57.9487 287.417 57.9487H276.032V69.3333C276.032 69.8856 275.584 70.3333 275.032 70.3333H274.968C274.416 70.3333 273.968 69.8856 273.968 69.3333V57.9487H262.583Z" fill="#05A4E9"/>
</svg>
