<svg width="14" height="14" viewBox="0 0 14 14" fill="none" xmlns="http://www.w3.org/2000/svg">
<path d="M1.16659 5.83334H2.91659C3.07129 5.83334 3.21967 5.8948 3.32906 6.0042C3.43846 6.11359 3.49992 6.26197 3.49992 6.41668V11.6667C3.49992 11.8214 3.43846 11.9698 3.32906 12.0792C3.21967 12.1886 3.07129 12.25 2.91659 12.25H1.16659C1.01188 12.25 0.863503 12.1886 0.754106 12.0792C0.64471 11.9698 0.583252 11.8214 0.583252 11.6667V6.41668C0.583252 6.26197 0.64471 6.11359 0.754106 6.0042C0.863503 5.8948 1.01188 5.83334 1.16659 5.83334ZM1.16659 6.41668V11.6667H2.91659V6.41668H1.16659ZM10.3366 11.1008L12.0866 8.18418C12.1916 8.00918 12.2499 7.79918 12.2499 7.58334V7.00001C12.2499 6.69059 12.127 6.39384 11.9082 6.17505C11.6894 5.95626 11.3927 5.83334 11.0833 5.83334H7.81075L8.66242 2.66001V2.64834C8.69004 2.55 8.69052 2.44602 8.66382 2.34743C8.63712 2.24883 8.58422 2.1593 8.51075 2.08834L5.01075 5.59418C4.79492 5.80418 4.66658 6.09584 4.66658 6.41668V10.5C4.66658 10.8094 4.7895 11.1062 5.00829 11.325C5.22709 11.5438 5.52383 11.6667 5.83325 11.6667H9.33325C9.75908 11.6667 10.1324 11.4392 10.3366 11.1008ZM12.8333 7.58334C12.8333 7.92751 12.7341 8.25418 12.5591 8.52251L10.8616 11.3458C10.5641 11.8883 9.99242 12.25 9.33325 12.25H5.83325C5.36912 12.25 4.924 12.0656 4.59582 11.7374C4.26763 11.4093 4.08325 10.9641 4.08325 10.5V6.41668C4.08325 5.93251 4.28159 5.49501 4.59659 5.18001L8.09689 1.67448C8.32541 1.44563 8.69623 1.44549 8.92492 1.67418C9.23409 1.98334 9.33325 2.42668 9.22242 2.82334L8.56908 5.25001H11.0833C11.5474 5.25001 11.9925 5.43438 12.3207 5.76257C12.6489 6.09076 12.8333 6.53588 12.8333 7.00001V7.58334Z" fill="#05A4E9"/>
</svg>
