<svg width="150" height="215" viewBox="0 0 150 215" fill="none" xmlns="http://www.w3.org/2000/svg">
<path d="M10.7444 121.415C22.641 116.115 12.7298 78.1952 12.4293 19.2134C12.4224 17.8709 13.7038 16.8892 14.9884 17.2793L114.387 47.4664C119.071 48.8888 123.345 51.4151 126.099 55.4615C132.034 64.178 141.407 82.6376 139.822 110.727C137.531 151.348 -1.33369 126.796 10.7444 121.415Z" fill="#05A4E9"/>
<circle cx="110.141" cy="89.7395" r="20.1408" fill="white"/>
<circle cx="45.7042" cy="89.7394" r="16.4789" fill="white"/>
<path d="M67.6761 89.7394H84.1549" stroke="white" stroke-width="5" stroke-linecap="round"/>
<path d="M15.6041 192.15C17.3708 192.15 18.6374 191.833 19.4041 191.2C20.2041 190.533 20.6041 189.75 20.6041 188.85C20.6041 188.017 20.2874 187.35 19.6541 186.85C19.0541 186.317 18.1541 185.85 16.9541 185.45L14.3041 184.6C12.5041 184 10.9208 183.333 9.5541 182.6C8.18744 181.867 7.12077 180.933 6.3541 179.8C5.58744 178.633 5.2041 177.15 5.2041 175.35C5.2041 172.583 6.2541 170.383 8.3541 168.75C10.4541 167.117 13.3708 166.3 17.1041 166.3C19.0041 166.3 20.6874 166.483 22.1541 166.85C23.6541 167.217 24.8208 167.767 25.6541 168.5C26.5208 169.2 26.9541 170.067 26.9541 171.1C26.9541 171.833 26.7708 172.483 26.4041 173.05C26.0374 173.617 25.6041 174.083 25.1041 174.45C24.3374 173.95 23.3041 173.5 22.0041 173.1C20.7374 172.7 19.3541 172.5 17.8541 172.5C16.2541 172.5 15.0374 172.767 14.2041 173.3C13.4041 173.833 13.0041 174.517 13.0041 175.35C13.0041 176.017 13.2708 176.567 13.8041 177C14.3708 177.4 15.1874 177.767 16.2541 178.1L19.0041 179C22.0374 179.933 24.3708 181.167 26.0041 182.7C27.6374 184.233 28.4541 186.3 28.4541 188.9C28.4541 191.7 27.3708 193.983 25.2041 195.75C23.0374 197.483 19.9041 198.35 15.8041 198.35C13.7708 198.35 11.9541 198.117 10.3541 197.65C8.7541 197.217 7.48744 196.6 6.5541 195.8C5.62077 194.967 5.1541 194 5.1541 192.9C5.1541 192.033 5.4041 191.3 5.9041 190.7C6.4041 190.1 6.97077 189.633 7.6041 189.3C8.5041 190.033 9.62077 190.7 10.9541 191.3C12.3208 191.867 13.8708 192.15 15.6041 192.15ZM32.8014 166.6C32.8014 165.467 33.1847 164.517 33.9514 163.75C34.7514 162.983 35.7514 162.6 36.9514 162.6C38.1514 162.6 39.1347 162.983 39.9014 163.75C40.668 164.517 41.0514 165.467 41.0514 166.6C41.0514 167.7 40.668 168.65 39.9014 169.45C39.1347 170.217 38.1514 170.6 36.9514 170.6C35.7514 170.6 34.7514 170.217 33.9514 169.45C33.1847 168.65 32.8014 167.7 32.8014 166.6ZM40.6514 184.3V197.45C40.318 197.517 39.8514 197.6 39.2514 197.7C38.6514 197.8 38.0014 197.85 37.3014 197.85C35.9014 197.85 34.868 197.6 34.2014 197.1C33.568 196.6 33.2514 195.7 33.2514 194.4V184.3H40.6514ZM33.2514 188.1V173.8C33.5847 173.7 34.0514 173.6 34.6514 173.5C35.2514 173.4 35.9014 173.35 36.6014 173.35C38.0014 173.35 39.018 173.6 39.6514 174.1C40.318 174.567 40.6514 175.467 40.6514 176.8V188.1H33.2514ZM56.6244 196.55C54.6244 196.55 52.7744 196.183 51.0744 195.45C49.4077 194.683 48.0577 193.433 47.0244 191.7C46.0244 189.933 45.5244 187.633 45.5244 184.8C45.5244 182.167 46.0411 179.967 47.0744 178.2C48.1411 176.4 49.6244 175.05 51.5244 174.15C53.4244 173.217 55.6244 172.75 58.1244 172.75C59.9244 172.75 61.5911 173 63.1244 173.5C64.6577 173.967 65.8577 174.483 66.7244 175.05C67.3577 175.45 67.8577 175.933 68.2244 176.5C68.5911 177.033 68.7744 177.717 68.7744 178.55V194.2H61.6744V179.4C61.2744 179.167 60.8077 178.983 60.2744 178.85C59.7744 178.683 59.1411 178.6 58.3744 178.6C56.7411 178.6 55.4077 179.1 54.3744 180.1C53.3744 181.1 52.8744 182.667 52.8744 184.8C52.8744 187.133 53.3577 188.75 54.3244 189.65C55.2911 190.55 56.4911 191 57.9244 191C59.0244 191 59.9411 190.8 60.6744 190.4C61.4077 190 62.0411 189.567 62.5744 189.1L62.8244 195C62.1244 195.433 61.2577 195.8 60.2244 196.1C59.2244 196.4 58.0244 196.55 56.6244 196.55ZM61.7744 192.6H68.7744V197.5C68.7744 199.8 68.2244 201.683 67.1244 203.15C66.0577 204.617 64.5911 205.7 62.7244 206.4C60.8911 207.1 58.8244 207.45 56.5244 207.45C54.7911 207.45 53.2577 207.3 51.9244 207C50.5911 206.7 49.5577 206.317 48.8244 205.85C47.6911 205.117 47.1244 204.083 47.1244 202.75C47.1244 202.05 47.2577 201.417 47.5244 200.85C47.8244 200.317 48.1744 199.917 48.5744 199.65C49.4744 200.183 50.5411 200.633 51.7744 201C53.0077 201.4 54.3077 201.6 55.6744 201.6C57.5411 201.6 59.0244 201.25 60.1244 200.55C61.2244 199.883 61.7744 198.783 61.7744 197.25V192.6ZM97.4553 186.65H90.1053V182.2C90.1053 180.933 89.7386 180.017 89.0053 179.45C88.2719 178.883 87.3219 178.6 86.1553 178.6C85.3219 178.6 84.5553 178.7 83.8553 178.9C83.1553 179.1 82.5053 179.35 81.9053 179.65V186.65H74.5553V178.85C74.5553 178.017 74.7219 177.333 75.0553 176.8C75.4219 176.233 75.9553 175.733 76.6553 175.3C77.7219 174.567 79.0719 173.967 80.7053 173.5C82.3719 173 84.2053 172.75 86.2053 172.75C89.8053 172.75 92.5719 173.55 94.5053 175.15C96.4719 176.717 97.4553 178.983 97.4553 181.95V186.65ZM81.9053 184.35V197.45C81.6053 197.517 81.1553 197.6 80.5553 197.7C79.9553 197.8 79.3053 197.85 78.6053 197.85C77.2053 197.85 76.1719 197.6 75.5053 197.1C74.8719 196.6 74.5553 195.7 74.5553 194.4V184.35H81.9053ZM97.4553 184.35V197.45C97.1553 197.517 96.7053 197.6 96.1053 197.7C95.5053 197.8 94.8553 197.85 94.1553 197.85C92.7553 197.85 91.7219 197.6 91.0553 197.1C90.4219 196.6 90.1053 195.7 90.1053 194.4V184.35H97.4553ZM106.465 184L118.915 182.05C118.815 181.083 118.398 180.217 117.665 179.45C116.932 178.65 115.848 178.25 114.415 178.25C112.882 178.25 111.615 178.767 110.615 179.8C109.615 180.8 109.098 182.25 109.065 184.15L109.265 187.55C109.598 189.383 110.398 190.7 111.665 191.5C112.932 192.267 114.432 192.65 116.165 192.65C117.565 192.65 118.882 192.467 120.115 192.1C121.348 191.7 122.348 191.267 123.115 190.8C123.582 191.1 123.982 191.517 124.315 192.05C124.648 192.583 124.815 193.15 124.815 193.75C124.815 194.75 124.415 195.583 123.615 196.25C122.848 196.917 121.765 197.417 120.365 197.75C118.998 198.083 117.432 198.25 115.665 198.25C113.098 198.25 110.798 197.767 108.765 196.8C106.732 195.833 105.132 194.383 103.965 192.45C102.798 190.517 102.215 188.1 102.215 185.2C102.215 183.067 102.548 181.217 103.215 179.65C103.882 178.083 104.782 176.8 105.915 175.8C107.082 174.767 108.382 174 109.815 173.5C111.282 173 112.798 172.75 114.365 172.75C116.665 172.75 118.665 173.217 120.365 174.15C122.098 175.05 123.448 176.283 124.415 177.85C125.382 179.417 125.865 181.233 125.865 183.3C125.865 184.333 125.582 185.117 125.015 185.65C124.448 186.15 123.665 186.483 122.665 186.65L106.765 189L106.465 184ZM137.815 184.3V189.65C137.815 190.617 138.115 191.317 138.715 191.75C139.315 192.15 140.148 192.35 141.215 192.35C141.748 192.35 142.298 192.3 142.865 192.2C143.431 192.1 143.931 191.967 144.365 191.8C144.631 192.1 144.865 192.467 145.065 192.9C145.265 193.3 145.365 193.783 145.365 194.35C145.365 195.483 144.898 196.417 143.965 197.15C143.065 197.85 141.515 198.2 139.315 198.2C136.548 198.2 134.381 197.583 132.815 196.35C131.281 195.083 130.515 193.017 130.515 190.15V184.3H137.815ZM135.115 174.05H144.765C144.931 174.317 145.098 174.7 145.265 175.2C145.431 175.7 145.515 176.25 145.515 176.85C145.515 177.85 145.281 178.583 144.815 179.05C144.381 179.517 143.781 179.75 143.015 179.75H135.115V174.05ZM130.515 185.55V167.6C130.815 167.5 131.265 167.4 131.865 167.3C132.465 167.167 133.098 167.1 133.765 167.1C135.165 167.1 136.181 167.35 136.815 167.85C137.481 168.35 137.815 169.25 137.815 170.55V185.55H130.515Z" fill="#121212"/>
</svg>
